<?xml version="1.0" encoding="UTF-8"?>
<svg id="Layer_2" data-name="Layer 2" xmlns="http://www.w3.org/2000/svg" viewBox="0 0 192.26 239.59">
  <defs>
    <style>
      .cls-1 {
        fill: #fff;
      }
    </style>
  </defs>
  <g id="Layer_2-2" data-name="Layer 2">
    <g>
      <path class="cls-1" d="M102.2,26.35c0,6.79,0,13.58,0,20.38,0,4.62-3.32,7.07-7.82,5.77-2.5-.73-3.72-2.29-3.73-4.9-.01-14.14-.01-28.29,0-42.43,0-2.57,1.18-4.1,3.65-4.84,1.58-.47,3.16-.43,4.71,.14,2.17,.81,3.18,2.23,3.19,4.55,.01,7.11,0,14.22,0,21.33Z"/>
      <path class="cls-1" d="M102.2,213.13c0,6.79,0,13.58,0,20.38,0,4.54-3.16,6.94-7.62,5.8-2.66-.68-3.93-2.3-3.93-5.11-.01-13.78,0-27.57,0-41.35,0-4.67,3.41-7.15,7.93-5.77,2.45,.75,3.61,2.28,3.62,4.84,0,7.07,0,14.14,0,21.21Z"/>
      <path class="cls-1" d="M5.23,12.08c2.75,.08,4.79,.83,6.01,2.9,2.66,4.5,6.09,8.41,9.5,12.3,5.48,6.24,9.86,13.25,14.58,20.03,.94,1.34,1.89,2.68,2.75,4.06,1.54,2.46,.82,4.77-1.83,6-3.15,1.46-6.73,.45-8.77-2.48-4.26-6.13-8.41-12.34-12.81-18.36-2.56-3.51-5.58-6.68-8.27-10.09-1.95-2.47-3.8-5.02-5.52-7.66-1.69-2.59-.8-5.03,2.09-6.15,.84-.33,1.77-.43,2.27-.55Z"/>
      <path class="cls-1" d="M187.03,12.09c.41,.09,1.25,.18,2.03,.45,3.1,1.07,4.13,3.63,2.28,6.32-2.53,3.67-5.08,7.38-8.03,10.71-5.83,6.57-10.65,13.86-15.59,21.06-1.02,1.48-2.01,2.98-3.05,4.45-1.94,2.74-5.43,3.7-8.51,2.36-2.78-1.21-3.58-3.61-1.91-6.13,2.51-3.79,5.24-7.45,7.67-11.29,4.23-6.67,9.58-12.46,14.48-18.6,1.56-1.96,3-4.03,4.37-6.13,1.4-2.13,3.33-3.12,6.25-3.19Z"/>
      <path class="cls-1" d="M5.23,227.46c-.47-.11-1.35-.21-2.16-.51-2.96-1.09-3.95-3.61-2.18-6.19,2.55-3.71,5.12-7.45,8.1-10.81,5.85-6.6,10.69-13.92,15.65-21.17,1.02-1.48,2.01-2.98,3.06-4.44,1.97-2.74,5.77-3.63,8.77-2.07,2.52,1.3,3.2,3.59,1.54,5.99-5.97,8.63-11.5,17.56-18.49,25.47-2.98,3.36-5.53,7.11-8.17,10.76-1.44,1.99-3.32,2.89-6.11,2.97Z"/>
      <path class="cls-1" d="M186.96,227.46c-2.76-.11-4.77-.89-5.98-2.98-2.35-4.03-5.36-7.56-8.43-11.01-5.86-6.59-10.6-13.99-15.58-21.22-.95-1.38-1.93-2.74-2.82-4.17-1.45-2.33-.8-4.53,1.64-5.8,3.08-1.61,6.91-.67,8.92,2.24,2.95,4.27,5.72,8.67,8.82,12.82,3.98,5.34,8.25,10.46,12.33,15.72,1.93,2.49,3.8,5.03,5.52,7.66,1.72,2.64,.8,5.11-2.15,6.21-.85,.31-1.77,.41-2.27,.52Z"/>
    </g>
  </g>
</svg>